<?xml version="1.0" encoding="UTF-8"?>
<svg xmlns="http://www.w3.org/2000/svg" xmlns:xlink="http://www.w3.org/1999/xlink" viewBox="0 0 48 48" version="1.1">
    <g>
        <path style=" stroke:none;fill-rule:nonzero;fill:rgb(100%,100%,100%);fill-opacity:1;" d="M 20.15625 4 C 19.675781 4 19.269531 4.339844 19.175781 4.808594 L 18.351562 9.046875 C 16.710938 9.667969 15.191406 10.535156 13.859375 11.628906 L 9.792969 10.226562 C 9.339844 10.074219 8.839844 10.257812 8.601562 10.671875 L 4.757812 17.328125 C 4.519531 17.742188 4.605469 18.269531 4.96875 18.582031 L 8.226562 21.414062 C 8.089844 22.257812 8 23.117188 8 24 C 8 24.882812 8.089844 25.742188 8.226562 26.585938 L 4.96875 29.417969 C 4.605469 29.730469 4.519531 30.257812 4.757812 30.671875 L 8.601562 37.328125 C 8.839844 37.742188 9.339844 37.929688 9.792969 37.773438 L 13.859375 36.375 C 15.191406 37.46875 16.710938 38.335938 18.351562 38.957031 L 19.175781 43.191406 C 19.269531 43.660156 19.675781 44 20.15625 44 L 24.519531 44 C 22.933594 41.730469 22 38.976562 22 36 C 22 34.558594 22.21875 33.171875 22.625 31.863281 C 18.863281 31.207031 16 27.945312 16 24 C 16 19.582031 19.582031 16 24 16 C 27.945312 16 31.207031 18.863281 31.863281 22.625 C 33.171875 22.21875 34.558594 22 36 22 C 37.363281 22 38.675781 22.203125 39.921875 22.566406 C 39.882812 22.179688 39.832031 21.792969 39.773438 21.414062 L 43.035156 18.582031 C 43.398438 18.269531 43.480469 17.742188 43.242188 17.328125 L 39.398438 10.671875 C 39.160156 10.257812 38.660156 10.070312 38.207031 10.226562 L 34.140625 11.625 C 32.804688 10.53125 31.292969 9.65625 29.648438 9.035156 L 28.824219 4.808594 C 28.730469 4.339844 28.324219 4 27.84375 4 Z M 36 26 C 30.398438 26 26 30.398438 26 36 C 26 41.601562 30.398438 46 36 46 C 38 46 40 45.398438 41.601562 44.398438 L 45.199219 48 L 48 45.199219 L 44.398438 41.601562 C 45.398438 40 46 38 46 36 C 46 30.398438 41.601562 26 36 26 Z M 36 30 C 39.398438 30 42 32.601562 42 36 C 42 39.398438 39.398438 42 36 42 C 32.601562 42 30 39.398438 30 36 C 30 32.601562 32.601562 30 36 30 Z M 36 30 "/>
    </g>
</svg>
