<svg fill="#000000" xmlns="http://www.w3.org/2000/svg" viewBox="0 0 24 24">
    <path d="M 9 2 C 7.8603333 2 6.4606691 2.2162019 5.2324219 2.9589844 C 4.0041746 3.7017669 3 5.1027445 3 7 L 3 8 C 3 8.8333333 2.7757379 9.6586592 2.4179688 10.195312 C 2.0601995 10.731967 1.6666667 11 1 11 L 1 13 C 1.6666667 13 2.0601996 13.268034 2.4179688 13.804688 C 2.7757379 14.34134 3 15.166667 3 16 L 3 17 C 3 18.897256 4.0041746 20.298233 5.2324219 21.041016 C 6.4606691 21.783798 7.8603333 22 9 22 L 9 20 C 8.1396667 20 7.0393309 19.796796 6.2675781 19.330078 C 5.4958254 18.863361 5 18.264744 5 17 L 5 16 C 5 14.833333 4.7242621 13.658659 4.0820312 12.695312 C 3.914997 12.444761 3.715898 12.210442 3.4902344 12 C 3.715898 11.789558 3.914997 11.555239 4.0820312 11.304688 C 4.7242621 10.34134 5 9.1666667 5 8 L 5 7 C 5 5.7352555 5.4958254 5.1366394 6.2675781 4.6699219 C 7.0393309 4.2032044 8.1396667 4 9 4 L 9 2 z M 15 2 L 15 4 C 15.860333 4 16.960669 4.2032044 17.732422 4.6699219 C 18.504175 5.1366394 19 5.7352555 19 7 L 19 8 C 19 9.1666667 19.275738 10.341341 19.917969 11.304688 C 20.085003 11.555239 20.284102 11.789558 20.509766 12 C 20.284102 12.210442 20.085003 12.444761 19.917969 12.695312 C 19.275738 13.65866 19 14.833333 19 16 L 19 17 C 19 18.264744 18.504175 18.863361 17.732422 19.330078 C 16.960669 19.796796 15.860333 20 15 20 L 15 22 C 16.139667 22 17.539331 21.783798 18.767578 21.041016 C 19.995825 20.298233 21 18.897256 21 17 L 21 16 C 21 15.166667 21.224262 14.341341 21.582031 13.804688 C 21.9398 13.268033 22.333333 13 23 13 L 23 11 C 22.333333 11 21.9398 10.731966 21.582031 10.195312 C 21.224262 9.6586592 21 8.8333333 21 8 L 21 7 C 21 5.1027445 19.995825 3.7017669 18.767578 2.9589844 C 17.539331 2.2162019 16.139667 2 15 2 z"/>
</svg>